<svg width="20" height="20" viewBox="0 0 20 20" xmlns="http://www.w3.org/2000/svg" xmlns:xlink="http://www.w3.org/1999/xlink">
    <defs>
        <path id="p8aj4lp9da" d="M0 0h20v20H0z"/>
    </defs>
    <g fill="none" fill-rule="evenodd">
        <mask id="ii15zh4d7b" fill="#fff">
            <use xlink:href="#p8aj4lp9da"/>
        </mask>
        <g mask="url(#ii15zh4d7b)">
            <path d="M5.531 8.168c0 .236.027.428.075.568.055.14.123.294.218.46a.265.265 0 0 1 .048.147c0 .063-.041.127-.13.191l-.429.268a.341.341 0 0 1-.177.058.323.323 0 0 1-.204-.09 1.995 1.995 0 0 1-.245-.3 4.841 4.841 0 0 1-.212-.376c-.531.587-1.199.88-2.002.88-.573 0-1.029-.153-1.363-.46C.776 9.21.606 8.8.606 8.29c0-.542.204-.983.62-1.315.416-.331.967-.497 1.669-.497.232 0 .47.019.722.05.252.033.51.084.783.141v-.466c0-.485-.109-.823-.32-1.021-.218-.198-.586-.294-1.11-.294-.239 0-.484.026-.736.083a5.697 5.697 0 0 0-.736.217 2.04 2.04 0 0 1-.238.083.443.443 0 0 1-.109.02c-.095 0-.143-.064-.143-.199V4.78c0-.102.014-.179.048-.224a.507.507 0 0 1 .19-.134c.239-.115.525-.21.859-.287a4.394 4.394 0 0 1 1.062-.121c.811 0 1.404.172 1.785.517.375.344.566.868.566 1.57v2.068h.013zm-2.765.97c.224 0 .456-.038.701-.115.245-.076.463-.217.647-.408a.994.994 0 0 0 .232-.409c.04-.153.068-.338.068-.555v-.268a6.034 6.034 0 0 0-.627-.109 5.473 5.473 0 0 0-.64-.038c-.456 0-.79.083-1.015.255-.225.173-.334.415-.334.735 0 .3.082.523.252.676.164.16.402.236.716.236zm5.47.69c-.123 0-.205-.02-.26-.064-.054-.038-.101-.128-.142-.25L6.233 4.582a1.058 1.058 0 0 1-.061-.255c0-.103.054-.16.163-.16h.668c.13 0 .218.02.265.064.055.038.096.127.137.249l1.144 4.225L9.612 4.48c.034-.128.075-.21.13-.25a.493.493 0 0 1 .272-.063h.545c.129 0 .218.02.272.064.055.038.102.127.13.249l1.076 4.276 1.178-4.276c.041-.128.089-.21.137-.25a.467.467 0 0 1 .265-.063h.634c.109 0 .17.051.17.16 0 .031-.007.063-.014.102a.864.864 0 0 1-.047.16L12.718 9.52c-.04.128-.089.21-.143.25a.458.458 0 0 1-.259.063h-.586c-.13 0-.218-.02-.272-.064-.055-.044-.102-.127-.13-.255l-1.056-4.117-1.049 4.11c-.034.128-.075.211-.129.256-.055.045-.15.064-.273.064h-.585zm8.753.172c-.354 0-.708-.038-1.049-.115-.34-.076-.606-.16-.783-.255-.11-.058-.184-.121-.211-.179a.427.427 0 0 1-.041-.179v-.325c0-.134.054-.198.156-.198a.41.41 0 0 1 .123.02c.04.012.102.037.17.063.232.096.484.172.75.223.272.051.538.077.81.077.43 0 .763-.07.995-.21a.678.678 0 0 0 .354-.607.6.6 0 0 0-.184-.447c-.122-.121-.354-.23-.688-.332l-.988-.287c-.497-.147-.865-.364-1.09-.651a1.46 1.46 0 0 1-.34-.926c0-.268.061-.504.184-.708a1.68 1.68 0 0 1 .49-.524c.205-.146.436-.255.709-.331.272-.077.558-.109.858-.109.15 0 .307.006.456.026.157.019.3.044.443.07.137.032.266.064.389.102.122.038.218.076.286.115a.581.581 0 0 1 .204.16c.04.05.061.12.061.21v.3c0 .134-.054.204-.156.204a.744.744 0 0 1-.26-.076 3.297 3.297 0 0 0-1.307-.25c-.388 0-.695.058-.906.18a.608.608 0 0 0-.32.568c0 .178.068.331.204.453.136.121.388.242.75.35l.967.288c.49.147.844.351 1.056.613.21.261.313.561.313.893 0 .275-.061.524-.177.74a1.747 1.747 0 0 1-.497.563c-.212.16-.464.274-.757.357-.306.09-.626.134-.974.134z" fill="#252F3E" fill-rule="nonzero"/>
            <g fill="#F90">
                <path d="M18.082 13.363C15.893 15.085 12.714 16 9.98 16c-3.832 0-7.284-1.51-9.891-4.02-.207-.198-.02-.468.226-.312 2.82 1.744 6.299 2.8 9.898 2.8 2.428 0 5.095-.538 7.55-1.644.365-.177.678.255.319.539z"/>
                <path d="M18.993 12.257c-.28-.383-1.85-.184-2.56-.092-.214.028-.247-.17-.054-.32 1.25-.935 3.306-.666 3.545-.354.24.32-.066 2.51-1.237 3.559-.18.163-.353.078-.273-.135.266-.702.858-2.282.579-2.658z"/>
            </g>
        </g>
    </g>
</svg>
